HIERARCHY
ROOT Hips
{
  OFFSET 5.70366 102.999 -1.77653
  CHANNELS 6 Xposition Yposition Zposition Zrotation Xrotation Yrotation
  JOINT RightUpLeg
  {
    OFFSET -8.9458 -8.66707 0.101652
    CHANNELS 3 Zrotation Xrotation Yrotation
    JOINT RightLeg
    {
      OFFSET 0 -44.4227 1.3727
      CHANNELS 3 Zrotation Xrotation Yrotation
      JOINT RightFoot
      {
        OFFSET 0.253549 -42.0924 -1.46059
        CHANNELS 3 Zrotation Xrotation Yrotation
        JOINT RightToes
        {
          OFFSET 0.04 -4.41509 8.4991
          CHANNELS 3 Zrotation Xrotation Yrotation
          End Site
          {
            OFFSET -0.08 -0.137448 9.77979
          }
        }
      }
    }
  }
  JOINT Spine
  {
    OFFSET 0 11.8905 0
    CHANNELS 3 Zrotation Xrotation Yrotation
    JOINT Spine1
    {
      OFFSET 0 25.6574 0.127663
      CHANNELS 3 Zrotation Xrotation Yrotation
      JOINT HEad
      {
        OFFSET 0 8.73416 0.011341
        CHANNELS 3 Zrotation Xrotation Yrotation
        End Site
        {
          OFFSET -0.29 12.7742 2.51395
        }
      }
      JOINT LeftShoulder1
      {
        OFFSET 8.99 -0.362252 -0.22
        CHANNELS 3 Zrotation Xrotation Yrotation
        JOINT LeftArm
        {
          OFFSET 10.2827 -0.00337999 0.322123
          CHANNELS 3 Zrotation Xrotation Yrotation
          JOINT LeftForeArm
          {
            OFFSET 26.2597 0.099144 -1.42434
            CHANNELS 3 Zrotation Xrotation Yrotation
            JOINT LeftHand
            {
              OFFSET 22.0902 0.085362 1.02216
              CHANNELS 3 Zrotation Xrotation Yrotation
              End Site
              {
                OFFSET 13.419 -0.6 1.50291
              }
            }
          }
        }
      }
      JOINT RightShoulder
      {
        OFFSET -8.99 -0.362252 -0.22
        CHANNELS 3 Zrotation Xrotation Yrotation
        JOINT RightArm
        {
          OFFSET -10.2827 -0.00338 0.322123
          CHANNELS 3 Zrotation Xrotation Yrotation
          JOINT RightForeArm
          {
            OFFSET -26.364 0.099144 -1.42434
            CHANNELS 3 Zrotation Xrotation Yrotation
            JOINT RightHand
            {
              OFFSET -22.0324 0.085362 1.02216
              CHANNELS 3 Zrotation Xrotation Yrotation
              End Site
              {
                OFFSET -13.3284 -0.6 1.50291
              }
            }
          }
        }
      }
    }
  }
  JOINT LeftUpLeg
  {
    OFFSET 8.9458 -8.66707 0.101652
    CHANNELS 3 Zrotation Xrotation Yrotation
    JOINT LeftLeg
    {
      OFFSET 0 -44.4227 1.3727
      CHANNELS 3 Zrotation Xrotation Yrotation
      JOINT LeftFoot
      {
        OFFSET -0.253549 -42.0924 -1.46059
        CHANNELS 3 Zrotation Xrotation Yrotation
        JOINT LeftToes
        {
          OFFSET -0.04 -4.41509 8.4991
          CHANNELS 3 Zrotation Xrotation Yrotation
          End Site
          {
            OFFSET 0.08 -0.047448 9.77979
          }
        }
      }
    }
  }
}
MOTION
Frames:	15
Frame Time:	0.0416667
-178.865 103.497 -42.0091 -0.429404 0.143466 88.4718 0.269256 -3.09517 -1.88858 -1.31344 13.5875 -4.95825 -6.89782 -7.26348 -0.138976 0.0462048 0.000530889 0.662642 0.977904 0.689999 0.292079 -1.9505 -2.02207 0.607983 -2.10454 11.253 5.97316 3.01388 0.0975627 2.12515 6.19966 -39.5948 7.9199 -0.491883 15.1745 -0.771085 1.1331 9.87199 -1.47666 4.36297 0.344734 -2.64133 -7.18387 -31.2063 -13.0158 -4.53768 18.1532 3.54064 -2.48605 9.81564 0.238316 -2.56381 -0.783174 1.24675 2.64778 9.70417 20.494 1.41498 -4.7469 -0.0244373 -1.31646e-009 8.75232e-006 -1.47016e-008 
-178.924 103.505 -41.9882 -0.428191 0.130753 88.4146 0.306365 -3.10697 -1.85776 -1.32547 13.5246 -4.93745 -6.91916 -7.2052 -0.138958 0.0462048 0.000530889 0.662642 0.984734 0.89932 0.281635 -1.9165 -2.15195 0.590659 -2.29583 11.0707 6.24233 2.73951 0.0733482 2.56792 5.97793 -40.3509 7.02209 -0.107501 16.2338 -0.313703 0.686033 9.90051 -2.1373 4.4289 0.344749 -2.58829 -7.23949 -31.1787 -13.0065 -4.54264 17.7335 3.52773 -2.41431 9.81548 0.405476 -2.50598 -0.860862 1.29318 2.59862 9.79862 20.4786 1.38378 -4.75943 -0.0244378 -1.31646e-009 8.75232e-006 -1.47016e-008 
-179.016 103.513 -41.9618 -0.416577 0.114762 88.3582 0.327438 -3.11563 -1.87115 -1.30298 13.4416 -4.87497 -6.89733 -7.12977 -0.136084 0.0462048 0.000530889 0.662642 0.966258 1.15372 0.24635 -1.80442 -2.2292 0.541482 -2.64751 10.8023 6.45582 2.34283 0.0483337 3.00603 5.75233 -40.9992 6.0803 0.136772 17.1861 -0.0359404 0.470379 9.91518 -2.42677 4.34504 0.340889 -2.59672 -7.06022 -31.263 -12.8408 -4.58443 17.4987 3.49978 -2.29 9.81993 0.437728 -2.43727 -0.956331 1.33964 2.54149 9.91031 20.474 1.39883 -4.77072 -0.0244382 -1.31646e-009 8.75232e-006 -1.47016e-008 
-179.075 103.519 -41.9444 -0.439848 0.108544 88.2761 0.325753 -3.17404 -1.89908 -1.26937 13.4155 -4.76639 -6.93239 -7.08092 -0.132142 0.0462048 0.000530889 0.662642 0.941903 1.20787 0.231651 -1.71534 -2.17463 0.517288 -2.90422 10.7899 6.50026 2.11879 0.0455291 3.06702 5.67688 -40.8385 5.82785 -0.107591 17.0526 -0.303518 0.824997 9.89081 -1.99082 4.15876 0.32768 -2.68963 -6.66074 -31.4421 -12.5392 -4.61459 17.7782 3.54476 -2.18434 9.82917 0.0454927 -2.41436 -1.0341 1.3511 2.52383 9.95484 20.5586 1.42225 -4.75112 -0.0244375 -1.31646e-009 8.75232e-006 -1.47016e-008 
-179.101 103.526 -41.9232 -0.475414 0.102236 88.1217 0.346979 -3.22861 -1.87831 -1.26753 13.3761 -4.63813 -7.02138 -7.02713 -0.128626 0.0462048 0.000530889 0.662642 0.933058 1.19344 0.248818 -1.72051 -2.16924 0.534249 -2.91271 11.2511 6.61497 2.06894 0.0456071 3.01176 5.55664 -40.7463 5.70251 -0.22594 17.0347 -0.42561 1.05533 9.87624 -1.89615 4.15108 0.322209 -2.72884 -6.4468 -31.5749 -12.3037 -4.62036 17.9751 3.645 -2.06163 9.83697 -0.176285 -2.39989 -1.05146 1.3689 2.52259 9.89979 20.6968 1.40541 -4.69836 -0.0244356 -1.31646e-009 8.75232e-006 -1.47016e-008 
-179.108 103.534 -41.8945 -0.474809 0.0935571 87.9551 0.379588 -3.21295 -1.84682 -1.2814 13.2999 -4.51094 -7.04726 -6.98207 -0.125422 0.0462048 0.000530889 0.662642 0.872479 1.21371 0.264373 -1.69184 -2.21019 0.545054 -2.84099 11.8735 6.69825 2.03668 0.0460791 2.99692 5.43462 -40.849 5.55044 -0.191938 17.3078 -0.409158 1.14026 9.87093 -1.90765 4.24438 0.323146 -2.70619 -6.45818 -31.7008 -12.1346 -4.6483 18.1905 3.63831 -1.93238 9.84054 0.0998047 -2.37657 -0.989321 1.39692 2.52464 9.78811 20.8145 1.37077 -4.64808 -0.0244339 -1.31646e-009 8.75232e-006 -1.47016e-008 
-179.099 103.535 -41.8695 -0.465147 0.0836187 87.8171 0.406474 -3.18546 -1.8247 -1.29067 13.2512 -4.39313 -7.04194 -6.96929 -0.12438 0.0462048 0.000530889 0.662642 0.776636 1.17569 0.28528 -1.61348 -2.15307 0.556423 -2.81156 12.1952 6.55254 1.99549 0.0468408 2.97975 5.35887 -40.5582 5.55681 -0.436523 16.7284 -0.726398 1.30394 9.86179 -1.47647 4.28711 0.325755 -2.6965 -6.44384 -31.7306 -12.0046 -4.61489 18.3146 3.66064 -2.05917 9.83441 0.112216 -2.35074 -0.942182 1.43014 2.52109 9.74808 20.912 1.32845 -4.63383 -0.0244334 -1.31646e-009 8.75232e-006 -1.47016e-008 
-179.087 103.531 -41.8527 -0.464859 0.0563475 87.6998 0.455226 -3.1882 -1.77914 -1.30607 13.251 -4.31765 -7.07845 -6.9686 -0.123678 0.0462048 0.000530889 0.662642 0.771817 1.07956 0.321286 -1.65239 -2.00513 0.599777 -2.63886 12.2956 6.29703 1.99964 0.0477846 2.98676 5.19155 -40.3871 5.42744 -0.562998 15.9781 -0.905178 1.20855 9.86885 -1.33489 4.3888 0.325774 -2.7221 -6.40527 -31.6201 -12 -4.52149 17.9922 3.84925 -2.36024 9.82291 -0.112406 -2.29715 -0.974283 1.49212 2.49109 9.85157 20.9831 1.28545 -4.67193 -0.0244347 -1.31646e-009 8.75232e-006 -1.47016e-008 
-179.071 103.528 -41.8439 -0.443828 0.0236251 87.6354 0.506457 -3.16233 -1.73656 -1.32456 13.2534 -4.29939 -7.09962 -6.96918 -0.122735 0.0462048 0.000530889 0.662642 0.795238 0.976755 0.339347 -1.7428 -1.81062 0.634354 -2.31234 12.4217 5.98633 1.94904 0.0488047 3.00707 5.11294 -40.6103 5.1764 -0.421599 16.1655 -0.74644 1.09634 9.87395 -1.47549 4.56723 0.320217 -2.7807 -6.45027 -31.6163 -12.0308 -4.51675 17.9192 3.96567 -2.33773 9.82086 0.186244 -2.2387 -0.987698 1.55587 2.4561 9.95565 20.9967 1.28728 -4.72506 -0.0244366 -1.31646e-009 8.75232e-006 -1.47016e-008 
-179.032 103.527 -41.8458 -0.408074 0.00167329 87.6311 0.527012 -3.0778 -1.73482 -1.32805 13.2124 -4.29902 -7.0655 -6.96473 -0.121655 0.0462048 0.000530889 0.662642 0.71975 0.858326 0.320588 -1.68247 -1.61255 0.611366 -2.12947 12.5604 5.62606 1.77849 0.0497951 3.03615 5.26292 -40.6501 5.10255 -0.487385 16.6148 -0.742599 1.24459 9.86528 -1.4331 4.69244 0.316889 -2.81764 -6.44749 -31.6337 -11.9138 -4.46681 18.0575 4.06389 -2.18504 9.82294 0.339944 -2.21436 -0.923775 1.57975 2.4524 9.95595 20.9708 1.31394 -4.75185 -0.0244375 -1.31646e-009 8.75232e-006 -1.47016e-008 
-178.971 103.531 -41.8603 -0.377654 -0.0265461 87.625 0.53641 -2.95451 -1.75409 -1.3132 13.1089 -4.27163 -7.03254 -6.94005 -0.120492 0.0462048 0.000530889 0.662642 0.639317 0.763637 0.287353 -1.56435 -1.50633 0.561578 -2.10922 12.747 5.39388 1.65521 0.0506467 3.12757 5.263 -40.8214 4.93621 -0.417009 17.025 -0.629804 1.00077 9.87972 -1.84736 4.70813 0.312155 -2.8494 -6.18432 -31.5208 -11.5992 -4.25681 17.7258 4.35324 -2.39532 9.82736 -0.190834 -2.19861 -0.824789 1.59394 2.46336 9.90697 20.9547 1.30159 -4.75567 -0.0244376 -1.31646e-009 8.75232e-006 -1.47016e-008 
-178.91 103.539 -41.8843 -0.344673 -0.0643384 87.5753 0.550019 -2.83186 -1.76869 -1.29968 13.0025 -4.20612 -7.0325 -6.90568 -0.11931 0.0462048 0.000530889 0.662642 0.650526 0.71944 0.282371 -1.56125 -1.45744 0.555271 -1.9521 12.9944 5.27306 1.67041 0.0512583 3.17801 5.02138 -41.3566 4.58606 -0.00861546 17.6392 -0.267521 0.53656 9.91098 -2.46743 4.72139 0.298403 -2.95705 -5.91318 -31.6862 -11.2237 -4.24547 18.0165 4.44272 -2.46832 9.8317 -0.12479 -2.17387 -0.711211 1.62915 2.45983 9.84017 20.9768 1.27597 -4.759 -0.0244378 -1.31646e-009 8.75232e-006 -1.47016e-008 
-178.865 103.541 -41.9161 -0.334619 -0.090469 87.4928 0.556742 -2.78992 -1.76514 -1.30826 12.98 -4.12325 -7.03192 -6.89459 -0.118176 0.0462048 0.000530889 0.662642 0.697102 0.675226 0.322166 -1.62477 -1.37159 0.605379 -1.66399 13.0642 5.11468 1.7453 0.051529 3.07861 4.89973 -41.2352 4.56395 -0.0974934 17.3875 -0.444378 0.796939 9.89333 -2.07681 4.92029 0.294132 -3.0003 -6.05395 -32.1078 -11.095 -4.49318 19.1028 4.26377 -2.11184 9.83339 0.626846 -2.16921 -0.638197 1.65285 2.45407 9.78638 21.0438 1.27718 -4.77622 -0.0244384 -1.31646e-009 8.75232e-006 -1.47016e-008 
-178.838 103.542 -41.9608 -0.372105 -0.0980981 87.4271 0.544222 -2.84394 -1.75319 -1.32716 13.0226 -4.06319 -7.00865 -6.90512 -0.117147 0.0462048 0.000530889 0.662642 0.755087 0.642922 0.349131 -1.68759 -1.33479 0.640688 -1.52548 12.9499 4.94144 1.78466 0.0516479 3.00564 4.89072 -40.5593 4.78739 -0.630461 16.4032 -1.04005 1.43145 9.85501 -1.27008 5.23617 0.323814 -2.79329 -6.34569 -32.1544 -11.3121 -4.57583 19.0916 4.412 -2.02143 9.83103 0.654804 -2.20447 -0.66115 1.62627 2.47345 9.79642 21.1342 1.2842 -4.79983 -0.0244392 -1.31646e-009 8.75232e-006 -1.47016e-008 
-178.82 103.542 -42.0157 -0.40319 -0.0967839 87.427 0.518543 -2.88069 -1.75246 -1.34505 13.0408 -4.0634 -6.99915 -6.89377 -0.116273 0.0462048 0.000530889 0.662642 0.818063 0.679657 0.32422 -1.7374 -1.4108 0.62002 -1.52389 12.9439 4.6528 1.54521 0.0438415 3.13715 4.8525 -40.6578 4.61462 -0.623761 16.6244 -1.08097 1.54123 9.84808 -1.40685 5.533 0.372138 -2.45619 -6.39376 -31.9333 -11.6189 -4.4963 18.2888 4.86294 -2.36275 9.81888 0.219033 -2.26222 -0.678921 1.57141 2.50934 9.78569 21.1938 1.30548 -4.79511 -0.024439 -1.31646e-009 8.75232e-006 -1.47016e-008 
